<?xml version="1.0" standalone="no"?>
<!DOCTYPE svg PUBLIC "-//W3C//DTD SVG 1.1//EN" "http://www.w3.org/Graphics/SVG/1.1/DTD/svg11.dtd" >
<svg xmlns="http://www.w3.org/2000/svg">
<metadata>
This is a custom SVG webfont generated by Font Squirrel.
Copyright   : c 2003 Nate Piekos wwwblambotcom
</metadata>
<defs>
<font id="BadaBoomBBRegular" horiz-adv-x="990" >
<font-face units-per-em="2048" ascent="1638" descent="-410" />
<missing-glyph horiz-adv-x="396" />
<glyph unicode=" "  horiz-adv-x="396" />
<glyph unicode="&#x09;" horiz-adv-x="396" />
<glyph unicode="&#xa0;" horiz-adv-x="396" />
<glyph unicode="!" horiz-adv-x="600" d="M-72 82q0 92 94 170q76 62 168 74q70 10 124 -20q64 -32 64 -100q0 -92 -98 -168q-76 -60 -166 -72q-72 -10 -124 16q-62 32 -62 100zM124 548l292 1022l418 -70q-166 -298 -244 -466q-106 -230 -188 -498z" />
<glyph unicode="&#x22;" d="M66 922l194 664l370 28q-128 -348 -178 -632zM578 922l194 664l370 28q-128 -348 -178 -632z" />
<glyph unicode="#" horiz-adv-x="1376" d="M-14 582l266 16l30 166q-94 -6 -192 -18l-4 304l248 16l60 346l344 64q-52 -194 -96 -392l190 12l56 316l344 64q-50 -180 -90 -362l262 16l-52 -302q-46 -2 -138 -5t-136 -5q-20 -88 -34 -172l254 16l-34 -302l-270 -12q-10 -66 -18 -130l-16 -132l-318 -88l58 336 q-68 -4 -202 -14q-20 -118 -32 -234l-318 -88l52 298q-50 -6 -96 -10l-98 -8zM544 616l206 12l32 174q-68 -4 -204 -14q-10 -58 -34 -172z" />
<glyph unicode="$" horiz-adv-x="940" d="M10 630q-4 182 208 458l-4 482l226 78q-6 -154 -10 -330q44 38 96 76l-2 278l226 80l-6 -258q102 12 160 -84q36 -62 36 -192q0 -70 -10 -160q-64 -24 -150 -58l-152 -58q0 94 -52 94q-74 0 -148 -84q-52 -62 -42 -120q6 -38 74 -38q40 0 120 14t120 14q198 0 218 -156 q24 -190 -180 -424q0 -100 4 -196l6 -196l-206 -116l-4 334q-58 -40 -110 -58l4 -132q2 -66 6 -132l-206 -116l-2 338q-102 0 -194 50q50 120 160 354q64 -44 136 -44q34 0 68 10q62 16 116 46q80 44 80 90q0 50 -82 50q-54 0 -161 -23t-163 -23q-178 0 -180 152z" />
<glyph unicode="%" horiz-adv-x="1558" d="M16 906q0 34 8 70q36 168 204 288q156 112 336 124q134 10 238 -46q120 -62 144 -186l252 338l304 -98q-258 -308 -472 -578q68 18 128 22q188 12 300 -88q86 -78 86 -190q0 -32 -8 -68q-36 -168 -204 -288q-156 -112 -336 -124q-126 -8 -224 36q-114 54 -148 164 q-110 -148 -240 -338l-300 56l500 672q-90 -36 -180 -42q-194 -12 -302 88q-86 78 -86 188zM314 880q0 -88 116 -80q58 4 108 44t50 96q0 40 -35 63t-77 19q-58 -4 -110 -45t-52 -97zM908 332q0 -44 38 -66q32 -18 76 -14q60 6 110 45t50 95q0 42 -35 64t-77 18 q-58 -6 -110 -46t-52 -96z" />
<glyph unicode="&#x26;" horiz-adv-x="1158" d="M-66 338q0 166 112 312q86 112 208 184q-132 86 -132 228q0 190 180 334q154 122 342 134q118 8 218 -34q112 -48 160 -146l-336 -236q-30 58 -110 50q-50 -4 -97 -38t-53 -82q-8 -52 28 -80t90 -22q16 2 98 10l208 20q150 12 310 34l24 -300q-32 0 -192 -12 q18 -38 28 -88q10 -48 0 -114q-34 -206 -220 -358q-180 -144 -394 -160q-186 -14 -322 80q-150 102 -150 284zM288 474q-12 -78 44 -120t134 -36q82 6 153 58t81 128q6 40 -16 90t-54 74l-108 -8q-80 -4 -148 -56q-74 -54 -86 -130z" />
<glyph unicode="'" horiz-adv-x="494" d="M84 922l194 664l370 28q-128 -348 -178 -632z" />
<glyph unicode="(" horiz-adv-x="712" d="M-46 468q0 100 22 206q106 538 586 1134q96 -86 286 -260q-428 -430 -536 -844q-22 -88 -22 -170q0 -312 324 -566l-152 -144q-74 -72 -150 -146q-358 368 -358 790z" />
<glyph unicode=")" horiz-adv-x="780" d="M-106 -62q426 426 534 842q22 86 22 170q0 312 -320 568q74 72 150 146l150 144q358 -370 358 -792q0 -102 -20 -204q-106 -540 -588 -1134z" />
<glyph unicode="*" horiz-adv-x="832" d="M66 966l222 140q-82 56 -176 118l138 200l156 -114l28 200l216 2l-18 -100q-8 -50 -14 -98l206 130l76 -182q-112 -66 -232 -142l178 -128l-164 -176q-20 14 -120 92q-10 -84 -16 -168l-226 -40l30 218q-28 -20 -85 -58t-85 -58z" />
<glyph unicode="+" horiz-adv-x="748" d="M62 746l222 26l30 190l286 32q-36 -120 -50 -190l174 20l-12 -302q-106 -6 -218 -18q-14 -94 -14 -182l-266 -42l28 190q-78 -12 -164 -30z" />
<glyph unicode="," horiz-adv-x="512" d="M-194 -288l278 648l362 -22q-174 -346 -262 -618z" />
<glyph unicode="-" horiz-adv-x="772" d="M70 746l662 78l-12 -302q-362 -28 -630 -82z" />
<glyph unicode="." horiz-adv-x="588" d="M4 82q0 92 95 169t207 77q60 0 105 -32t45 -90q0 -92 -95 -167t-207 -75q-60 0 -102 28q-48 34 -48 90z" />
<glyph unicode="/" horiz-adv-x="1084" d="M-158 0l1114 1494l302 -98q-676 -806 -1116 -1452z" />
<glyph unicode="0" d="M-60 448q0 142 44 308q74 282 254 518q222 290 472 290q212 0 300 -236q46 -122 46 -268q0 -140 -42 -304q-74 -280 -256 -516q-222 -288 -470 -288q-214 0 -304 236q-44 116 -44 260zM268 480q0 -82 40 -134q46 -58 128 -58q112 0 202 118q72 94 104 222q38 150 16 296 q-24 144 -120 144q-110 0 -224 -180q-92 -142 -128 -278q-18 -72 -18 -130z" />
<glyph unicode="1" horiz-adv-x="692" d="M102 992l54 380l636 104q-206 -782 -268 -1390l-336 -88l176 1034z" />
<glyph unicode="2" horiz-adv-x="964" d="M-100 62q0 196 80 338q96 174 428 350q182 96 216 190q16 48 16 86q0 40 -23 71t-63 31q-86 0 -92 -140l-372 -66q94 444 352 556q72 32 146 32q150 0 268 -106q152 -134 152 -320q0 -176 -154 -346q-112 -126 -336 -226q-170 -76 -214 -150l520 34l-44 -374l-876 -46 q-4 44 -4 86z" />
<glyph unicode="3" horiz-adv-x="940" d="M-60 354l370 52q-8 -24 -8 -42q0 -34 34 -34q14 0 32 6q86 24 132 84q18 22 18 44q0 90 -194 90q-106 0 -282 -24l68 336q182 120 348 234q-170 -14 -336 -36l24 380l806 46q-26 -148 -70 -448q-126 -4 -330 -176q376 -58 374 -294q0 -204 -245 -408t-467 -186 q-256 22 -274 376z" />
<glyph unicode="4" horiz-adv-x="912" d="M-50 464l270 966l378 56q-166 -430 -282 -800l170 10l100 592l340 60q-100 -400 -146 -634l96 6l-42 -374h-60q-38 -2 -58 -2q-22 -134 -34 -266l-316 -80l56 332q-194 -12 -392 -36z" />
<glyph unicode="5" horiz-adv-x="904" d="M-22 354q0 78 10 172l356 -24q-14 -44 -14 -72q0 -38 30 -38q10 0 22 4q78 24 128 100q24 38 24 74q0 38 -26 76q-36 50 -192 50q-70 0 -162 -10l-124 -26q50 296 154 784l740 50l-40 -374q-218 -8 -454 -20q-8 -32 -20 -92q466 -8 484 -280q10 -124 -74 -270 q-66 -120 -174 -226q-232 -230 -432 -230q-134 0 -200 140q-36 76 -36 212z" />
<glyph unicode="6" horiz-adv-x="960" d="M-42 514q0 114 28 244q58 266 226 486q202 266 442 266q208 0 306 -226l-238 -296q-20 30 -42 60q-28 36 -54 36q-124 0 -258 -252q122 42 230 42q96 0 180 -34q138 -54 138 -198q0 -42 -12 -92q-48 -194 -216 -362q-182 -182 -372 -182q-206 0 -302 220q-56 128 -56 288 zM274 480q18 -152 122 -152q40 0 94 22q106 46 106 110q0 32 -19 60t-49 28q8 0 -138 -34q-60 -14 -116 -34z" />
<glyph unicode="7" horiz-adv-x="736" d="M18 -2l408 1078l-358 -30l78 378l788 94l-590 -1486z" />
<glyph unicode="8" horiz-adv-x="1052" d="M-88 316q0 174 128 334q90 112 220 184q-122 80 -122 212q0 34 8 72q36 168 204 288q158 112 338 124q188 12 300 -90q88 -78 88 -190q0 -32 -8 -68q-38 -176 -230 -302q176 -100 176 -300q0 -42 -10 -88q-44 -206 -238 -358q-186 -144 -404 -160q-224 -16 -354 112 q-96 94 -96 230zM270 442q0 -66 56 -100q48 -28 116 -24q90 6 164 66q82 66 82 150q0 66 -53 98t-121 28q-88 -6 -164 -66q-80 -66 -80 -152zM438 1022q0 -88 114 -80q60 4 111 43t51 97q0 40 -36 63t-78 19q-58 -4 -110 -45t-52 -97z" />
<glyph unicode="9" horiz-adv-x="1036" d="M30 900q0 44 10 94q44 208 240 358q186 146 404 162q222 16 352 -112q98 -98 98 -234q0 -142 -92 -280q-254 -482 -412 -874l-312 58l240 494q-22 -6 -78 -10q-228 -16 -354 112q-96 96 -96 232zM390 922q0 -54 46 -80q40 -24 96 -20q72 6 135 56t63 118q0 52 -43 79 t-97 23q-72 -6 -132 -54q-68 -52 -68 -122z" />
<glyph unicode=":" horiz-adv-x="480" d="M-36 334q0 92 95 169t207 77q60 0 105 -32t45 -90q0 -92 -95 -168t-207 -76q-60 0 -102 30q-48 32 -48 90zM80 876q0 92 95 169t207 77q60 0 105 -32t45 -90q0 -92 -95 -168t-207 -76q-60 0 -102 30q-48 32 -48 90z" />
<glyph unicode=";" horiz-adv-x="520" d="M-232 -288l278 648l362 -22q-174 -346 -262 -618zM76 676q0 90 95 168t207 78q60 0 102 -30q48 -36 48 -94q0 -90 -95 -166t-207 -76q-60 0 -102 30q-48 32 -48 90z" />
<glyph unicode="=" horiz-adv-x="760" d="M40 546l662 80l-12 -304q-320 -20 -632 -80zM94 982l664 80l-14 -302q-360 -28 -632 -82z" />
<glyph unicode="?" horiz-adv-x="868" d="M88 82q0 92 96 170q76 62 168 74q70 10 129 -21t59 -99q0 -92 -96 -168q-78 -60 -168 -72q-70 -10 -124 16q-64 32 -64 100zM188 1058l18 356q312 94 512 94q272 0 270 -188q-2 -238 -260 -474q-142 -130 -460 -326q6 38 -20 131t-20 133q122 46 234 112q164 98 172 176 q4 54 -102 60t-344 -74z" />
<glyph unicode="@" horiz-adv-x="2050" d="M-6 462q0 354 178 602q156 214 428 326q244 102 532 102q352 0 628 -140q338 -172 338 -450q0 -202 -204 -506q-170 -252 -574 -414l-214 154l28 166q-156 -90 -328 -90q-120 0 -202 58q-96 68 -96 182q0 190 202 358q160 134 356 168q92 16 182 0l2 12q44 6 84 6 q24 0 72 -5t70 -5q46 0 94 8q-48 -188 -88 -350l-86 -350q254 182 320 338q36 84 36 156q0 190 -232 302q-188 90 -418 90q-374 0 -578 -202q-154 -154 -154 -394q0 -176 104 -408l-402 -210q-78 276 -78 496zM814 456q0 -70 86 -70q70 0 134 52q50 38 60 86t-29 72t-87 16 q-56 -10 -110 -56t-54 -100z" />
<glyph unicode="A" horiz-adv-x="816" d="M-238 -26q294 750 476 1446l608 102q-95 -553 -95 -1290q0 -71 1 -144l-424 -98l30 250l-134 -26l-42 -176zM292 490l98 18l92 756h-2z" />
<glyph unicode="B" horiz-adv-x="902" d="M-68 -4q78 410 172 1102q28 196 38 308q64 10 240 54q152 36 244 46q36 2 70 2q264 0 262 -188q0 -266 -328 -532q20 1 38 1q171 0 200 -117q6 -28 6 -58q0 -150 -144 -304q-110 -118 -272 -208q-194 -108 -446 -108q-40 0 -80 2zM320 368q282 86 282 196q0 40 -70 40 q-62 0 -178 -30q-16 -76 -34 -206zM406 846q146 90 208 208q14 26 14 42q0 34 -52 34q-40 0 -112 -20q-16 -66 -30 -132z" />
<glyph unicode="C" horiz-adv-x="808" d="M-48 512q0 116 30 246q60 266 228 486q202 266 440 266q208 0 306 -226l-226 -248q-46 48 -106 48q-106 0 -220 -182q-94 -150 -122 -280q-14 -62 -14 -112q0 -134 98 -184q32 -16 68 -16q104 0 218 154l64 -238q-198 -220 -402 -220q-208 0 -304 220q-58 128 -58 286z " />
<glyph unicode="D" horiz-adv-x="856" d="M-96 -2q4 44 42 262l160 920q34 206 36 234q230 76 390 76q180 0 274 -94q130 -134 130 -326q0 -70 -18 -148q-78 -352 -368 -615t-646 -309zM288 342q120 114 214 264q116 184 116 316q0 162 -173 162h-17q-92 -392 -140 -742z" />
<glyph unicode="E" horiz-adv-x="738" d="M-94 -2l238 1434l666 96l-26 -370q-196 -18 -360 -44q-16 -58 -28 -114l-22 -110l320 68l-18 -276q-228 -40 -358 -70q-8 -40 -14 -80l-14 -78l372 54l-26 -372q-288 -24 -730 -138z" />
<glyph unicode="F" horiz-adv-x="740" d="M-96 -2l234 1434l684 96l-24 -370q-200 -18 -372 -44q-14 -56 -24 -110l-24 -108l350 74l-18 -280q-206 -32 -388 -74q-48 -268 -76 -530z" />
<glyph unicode="G" horiz-adv-x="978" d="M-62 436q0 134 42 294q70 274 250 502q218 278 464 278q214 0 302 -236l-222 -238q-36 54 -106 54q-136 0 -256 -188q-90 -142 -134 -314q-18 -68 -18 -122q0 -82 42 -132q46 -56 128 -56q94 0 174 86q64 68 104 172q-148 -30 -274 -62l64 296l530 112v-16 q0 -124 -56 -282q-54 -148 -134 -272q-234 -360 -554 -360q-212 0 -300 228q-46 114 -46 256z" />
<glyph unicode="H" horiz-adv-x="884" d="M-78 -2l242 1414l370 64q-100 -382 -162 -696l166 34l102 598l370 64q-212 -818 -268 -1390l-344 -88l92 544q-56 -12 -170 -36q-38 -246 -54 -420z" />
<glyph unicode="I" horiz-adv-x="446" d="M-42 -2l246 1414l344 64q-208 -802 -272 -1390z" />
<glyph unicode="J" horiz-adv-x="666" d="M-158 72l174 352l232 -38l178 1026l340 64q-206 -820 -268 -1390l-308 -86q-8 0 -168 34q-64 12 -116 24z" />
<glyph unicode="K" horiz-adv-x="880" d="M-84 -2l244 1414l344 64q-48 -176 -68 -278q174 152 318 292l252 -164l-394 -350l220 -814l-360 -192l-140 754q-62 -322 -100 -638z" />
<glyph unicode="L" horiz-adv-x="668" d="M-80 -2l246 1414l344 64q-144 -554 -222 -1022l352 54l-30 -372q-272 -24 -690 -138z" />
<glyph unicode="M" horiz-adv-x="1286" d="M-176 -12q270 684 412 1392l478 78l-68 -734l186 678l460 80q-82 -652 -82 -1176q0 -104 2 -206l-410 -72l72 876l-262 -970l-220 -30l132 1232l-284 -1092z" />
<glyph unicode="N" horiz-adv-x="932" d="M-80 -98l264 1504l346 70q-4 -62 -4 -176q0 -272 18 -478q10 -118 30 -190l136 780l344 64q-208 -802 -272 -1390l-316 -88q-2 4 -26 70l-104 296q-26 72 -30 92q-42 -236 -66 -458z" />
<glyph unicode="O" d="M-60 448q0 142 44 308q74 282 254 518q222 290 472 290q212 0 300 -236q46 -122 46 -268q0 -140 -42 -304q-74 -280 -256 -516q-222 -288 -470 -288q-214 0 -304 236q-44 116 -44 260zM268 480q0 -82 40 -134q46 -58 128 -58q112 0 202 118q72 94 104 222q24 95 24 188 q0 54 -8 108q-24 144 -120 144q-110 0 -224 -180q-92 -142 -128 -278q-18 -72 -18 -130z" />
<glyph unicode="P" horiz-adv-x="736" d="M-90 -2q6 44 48 268l88 474q118 654 108 674q310 94 508 94q266 0 266 -183q0 -380 -636 -787q-44 -244 -64 -452zM358 872q186 92 240 194q8 16 8 26q0 34 -50 34q-48 0 -150 -32q-14 -56 -26 -112z" />
<glyph unicode="Q" horiz-adv-x="1052" d="M-50 452q0 140 42 304q74 280 256 518q224 290 472 290q210 0 300 -236q46 -122 46 -266q0 -352 -208 -696q10 -84 76 -344l-288 -182l-44 230q-160 -118 -304 -118q-214 0 -302 236q-46 120 -46 264zM278 480q0 -82 40 -134q46 -58 128 -58q52 0 106 32l-60 318l286 150 q2 26 2 51q0 75 -14 139q-30 128 -110 128q-108 0 -228 -198q-96 -158 -132 -298q-18 -72 -18 -130z" />
<glyph unicode="R" horiz-adv-x="816" d="M-92 -2q4 44 44 266l200 1150q314 94 514 94q268 0 268 -185q0 -271 -340 -545q28 -76 232 -478q-104 -96 -314 -282l-214 552h-2q-48 -262 -72 -484zM344 826q70 36 138 94q78 68 104 130q10 18 10 34q0 44 -58 44q-46 0 -134 -30q-18 -68 -32 -136z" />
<glyph unicode="S" horiz-adv-x="890" d="M-44 668q26 222 286 514q266 300 458 314h14q172 0 172 -280q0 -70 -10 -158q-64 -24 -152 -58l-150 -58q0 94 -52 94q-74 0 -148 -84q-45 -54 -45 -104q0 -8 1 -16q6 -38 76 -38q38 0 100 12q86 18 152 18q168 0 196 -116q8 -36 8 -76q0 -128 -96 -276 q-124 -194 -348 -326q-118 -70 -232 -70q-104 0 -204 58q50 120 160 354q64 -44 136 -44q32 0 66 10q62 16 118 46q80 44 80 90q0 50 -82 50q-56 0 -163 -23t-163 -23q-74 0 -114 28q-66 44 -66 130q0 15 2 32z" />
<glyph unicode="T" horiz-adv-x="730" d="M52 1398l848 98l-12 -372q-140 -8 -266 -20q-132 -554 -178 -1018l-338 -88l184 1064q-54 -8 -108 -18l-106 -20z" />
<glyph unicode="U" horiz-adv-x="870" d="M-72 -2l248 1414l342 64q-138 -524 -204 -940l190 80l140 796l342 64q-208 -820 -270 -1390l-320 -88l40 222q-168 -74 -508 -222z" />
<glyph unicode="V" horiz-adv-x="796" d="M34 -18q50 284 62 692l12 696l400 90l-172 -1276h2l292 1226l362 66q-238 -652 -426 -1398z" />
<glyph unicode="W" horiz-adv-x="1180" d="M-16 -8q94 737 94 1354v26l380 72l-78 -876l260 972l204 30l-138 -1234l278 1092l388 60q-270 -716 -402 -1396l-448 -76l74 734l-186 -680z" />
<glyph unicode="X" horiz-adv-x="810" d="M-196 18l452 714q-78 326 -162 582l282 212l110 -430l260 408l260 -92q-212 -304 -428 -670l154 -602l-318 -198l-36 194q-18 98 -36 198l-96 -174q-48 -88 -94 -172z" />
<glyph unicode="Y" horiz-adv-x="774" d="M8 34l212 446l-168 804l390 180q-6 -92 -8 -230v-31q0 -123 14 -245l230 484l322 -56q-432 -758 -684 -1372z" />
<glyph unicode="Z" horiz-adv-x="974" d="M-64 -40l2 370q84 98 334 366l346 370q-172 -14 -370 -46l14 378l810 64q-18 -124 -52 -374q-84 -84 -332 -360q-84 -90 -166 -180q-108 -118 -152 -184l472 32l-42 -374q-518 -14 -864 -62z" />
<glyph unicode="\" horiz-adv-x="1008" d="M84 1396l344 98l480 -1494l-324 -56q-168 638 -500 1452z" />
<glyph unicode="a" horiz-adv-x="816" d="M-238 -26q294 750 476 1446l608 102q-95 -553 -95 -1290q0 -71 1 -144l-424 -98l30 250l-134 -26l-42 -176zM292 490l98 18l92 756h-2z" />
<glyph unicode="b" horiz-adv-x="902" d="M-68 -4q78 410 172 1102q28 196 38 308q64 10 240 54q152 36 244 46q36 2 70 2q264 0 262 -188q0 -266 -328 -532q20 1 38 1q171 0 200 -117q6 -28 6 -58q0 -150 -144 -304q-110 -118 -272 -208q-194 -108 -446 -108q-40 0 -80 2zM320 368q282 86 282 196q0 40 -70 40 q-62 0 -178 -30q-16 -76 -34 -206zM406 846q146 90 208 208q14 26 14 42q0 34 -52 34q-40 0 -112 -20q-16 -66 -30 -132z" />
<glyph unicode="c" horiz-adv-x="808" d="M-48 512q0 116 30 246q60 266 228 486q202 266 440 266q208 0 306 -226l-226 -248q-46 48 -106 48q-106 0 -220 -182q-94 -150 -122 -280q-14 -62 -14 -112q0 -134 98 -184q32 -16 68 -16q104 0 218 154l64 -238q-198 -220 -402 -220q-208 0 -304 220q-58 128 -58 286z " />
<glyph unicode="d" horiz-adv-x="856" d="M-96 -2q4 44 42 262l160 920q34 206 36 234q230 76 390 76q180 0 274 -94q130 -134 130 -326q0 -70 -18 -148q-78 -352 -368 -615t-646 -309zM288 342q120 114 214 264q116 184 116 316q0 162 -173 162h-17q-92 -392 -140 -742z" />
<glyph unicode="e" horiz-adv-x="738" d="M-94 -2l238 1434l666 96l-26 -370q-196 -18 -360 -44q-16 -58 -28 -114l-22 -110l320 68l-18 -276q-228 -40 -358 -70q-8 -40 -14 -80l-14 -78l372 54l-26 -372q-288 -24 -730 -138z" />
<glyph unicode="f" horiz-adv-x="740" d="M-96 -2l234 1434l684 96l-24 -370q-200 -18 -372 -44q-14 -56 -24 -110l-24 -108l350 74l-18 -280q-206 -32 -388 -74q-48 -268 -76 -530z" />
<glyph unicode="g" horiz-adv-x="978" d="M-62 436q0 134 42 294q70 274 250 502q218 278 464 278q214 0 302 -236l-222 -238q-36 54 -106 54q-136 0 -256 -188q-90 -142 -134 -314q-18 -68 -18 -122q0 -82 42 -132q46 -56 128 -56q94 0 174 86q64 68 104 172q-148 -30 -274 -62l64 296l530 112v-16 q0 -124 -56 -282q-54 -148 -134 -272q-234 -360 -554 -360q-212 0 -300 228q-46 114 -46 256z" />
<glyph unicode="h" horiz-adv-x="884" d="M-78 -2l242 1414l370 64q-100 -382 -162 -696l166 34l102 598l370 64q-212 -818 -268 -1390l-344 -88l92 544q-56 -12 -170 -36q-38 -246 -54 -420z" />
<glyph unicode="i" horiz-adv-x="446" d="M-42 -2l246 1414l344 64q-208 -802 -272 -1390z" />
<glyph unicode="j" horiz-adv-x="666" d="M-158 72l174 352l232 -38l178 1026l340 64q-206 -820 -268 -1390l-308 -86q-8 0 -168 34q-64 12 -116 24z" />
<glyph unicode="k" horiz-adv-x="880" d="M-84 -2l244 1414l344 64q-46 -176 -68 -278q174 152 318 292l252 -164l-394 -350l222 -814l-362 -192l-140 754q-62 -322 -98 -638z" />
<glyph unicode="l" horiz-adv-x="668" d="M-80 -2l246 1414l344 64q-144 -554 -222 -1022l352 54l-30 -372q-272 -24 -690 -138z" />
<glyph unicode="m" horiz-adv-x="1286" d="M-176 -12q270 684 412 1392l478 78l-68 -734l186 678l460 80q-82 -652 -82 -1176q0 -104 2 -206l-410 -72l72 876l-262 -970l-220 -30l132 1232l-284 -1092z" />
<glyph unicode="n" horiz-adv-x="932" d="M-80 -98l264 1504l346 70q-4 -62 -4 -176q0 -272 18 -478q10 -118 30 -190l136 780l344 64q-208 -802 -272 -1390l-316 -88q-2 4 -26 70l-104 296q-26 72 -30 92q-42 -236 -66 -458z" />
<glyph unicode="o" d="M-60 448q0 142 44 308q74 282 254 518q222 290 472 290q212 0 300 -236q46 -122 46 -268q0 -140 -42 -304q-74 -280 -256 -516q-222 -288 -470 -288q-214 0 -304 236q-44 116 -44 260zM268 480q0 -82 40 -134q46 -58 128 -58q112 0 202 118q72 94 104 222q24 95 24 188 q0 54 -8 108q-24 144 -120 144q-110 0 -224 -180q-92 -142 -128 -278q-18 -72 -18 -130z" />
<glyph unicode="p" horiz-adv-x="736" d="M-90 -2q6 44 48 268l88 474q118 654 108 674q310 94 508 94q266 0 266 -183q0 -380 -636 -787q-44 -244 -64 -452zM358 872q186 92 240 194q8 16 8 26q0 34 -50 34q-48 0 -150 -32q-14 -56 -26 -112z" />
<glyph unicode="q" horiz-adv-x="1052" d="M-50 452q0 140 42 304q74 280 256 518q224 290 472 290q210 0 300 -236q46 -122 46 -266q0 -352 -208 -696q10 -84 76 -344l-288 -182l-44 230q-160 -118 -304 -118q-214 0 -302 236q-46 120 -46 264zM278 480q0 -82 40 -134q46 -58 128 -58q52 0 106 32l-60 318l286 150 q2 26 2 51q0 75 -14 139q-30 128 -110 128q-108 0 -228 -198q-96 -158 -132 -298q-18 -72 -18 -130z" />
<glyph unicode="r" horiz-adv-x="816" d="M-92 -2q4 44 44 266l200 1150q314 94 514 94q268 0 268 -185q0 -271 -340 -545q28 -76 232 -478q-104 -96 -314 -282l-214 552h-2q-48 -262 -72 -484zM344 826q70 36 138 94q78 68 104 130q10 18 10 34q0 44 -58 44q-46 0 -134 -30q-18 -68 -32 -136z" />
<glyph unicode="s" horiz-adv-x="890" d="M-44 668q26 222 286 514q266 300 458 314h14q172 0 172 -280q0 -70 -10 -158q-64 -24 -152 -58l-150 -58q0 94 -52 94q-74 0 -148 -84q-45 -54 -45 -104q0 -8 1 -16q6 -38 76 -38q38 0 100 12q86 18 152 18q168 0 196 -116q8 -36 8 -76q0 -128 -96 -276 q-124 -194 -348 -326q-118 -70 -232 -70q-104 0 -204 58q50 120 160 354q64 -44 136 -44q32 0 66 10q62 16 118 46q80 44 80 90q0 50 -82 50q-56 0 -163 -23t-163 -23q-74 0 -114 28q-66 44 -66 130q0 15 2 32z" />
<glyph unicode="t" horiz-adv-x="730" d="M52 1398l848 98l-12 -372q-140 -8 -266 -20q-132 -554 -178 -1018l-338 -88l184 1064q-54 -8 -108 -18l-106 -20z" />
<glyph unicode="u" horiz-adv-x="870" d="M-72 -2l248 1414l342 64q-138 -524 -204 -940l190 80l140 796l342 64q-208 -820 -270 -1390l-320 -88l40 222q-168 -74 -508 -222z" />
<glyph unicode="v" horiz-adv-x="796" d="M34 -18q50 284 62 692l12 696l400 90l-172 -1276h2l292 1226l362 66q-238 -652 -426 -1398z" />
<glyph unicode="w" horiz-adv-x="1180" d="M-16 -8q94 737 94 1354v26l380 72l-78 -876l260 972l204 30l-138 -1234l278 1092l388 60q-270 -716 -402 -1396l-448 -76l74 734l-186 -680z" />
<glyph unicode="x" horiz-adv-x="810" d="M-196 18l452 714q-78 326 -162 582l282 212l110 -430l260 408l260 -92q-212 -304 -428 -670l154 -602l-318 -198l-36 194q-18 98 -36 198l-96 -174q-48 -88 -94 -172z" />
<glyph unicode="y" horiz-adv-x="774" d="M8 34l212 446l-168 804l390 180q-6 -92 -8 -230v-31q0 -123 14 -245l230 484l322 -56q-432 -758 -684 -1372z" />
<glyph unicode="z" horiz-adv-x="974" d="M-64 -40l2 370q84 98 334 366l346 370q-172 -14 -370 -46l14 378l810 64q-18 -124 -52 -374q-84 -84 -332 -360q-84 -90 -166 -180q-108 -118 -152 -184l472 32l-42 -374q-518 -14 -864 -62z" />
<glyph unicode="&#xaa;" horiz-adv-x="816" d="M-238 -26q294 750 476 1446l608 102q-95 -553 -95 -1290q0 -71 1 -144l-424 -98l30 250l-134 -26l-42 -176zM292 490l98 18l92 756h-2z" />
<glyph unicode="&#xad;" horiz-adv-x="772" d="M70 746l662 78l-12 -302q-362 -28 -630 -82z" />
<glyph unicode="&#xb2;" horiz-adv-x="964" d="M-100 62q0 196 80 338q96 174 428 350q182 96 216 190q16 48 16 86q0 40 -23 71t-63 31q-86 0 -92 -140l-372 -66q94 444 352 556q72 32 146 32q150 0 268 -106q152 -134 152 -320q0 -176 -154 -346q-112 -126 -336 -226q-170 -76 -214 -150l520 34l-44 -374l-876 -46 q-4 44 -4 86z" />
<glyph unicode="&#xb3;" horiz-adv-x="940" d="M-60 354l370 52q-8 -24 -8 -42q0 -34 34 -34q14 0 32 6q86 24 132 84q18 22 18 44q0 90 -194 90q-106 0 -282 -24l68 336q182 120 348 234q-170 -14 -336 -36l24 380l806 46q-26 -148 -70 -448q-126 -4 -330 -176q376 -58 374 -294q0 -204 -245 -408t-467 -186 q-256 22 -274 376z" />
<glyph unicode="&#xb9;" horiz-adv-x="692" d="M102 992l54 380l636 104q-206 -782 -268 -1390l-336 -88l176 1034z" />
<glyph unicode="&#xba;" d="M-60 448q0 142 44 308q74 282 254 518q222 290 472 290q212 0 300 -236q46 -122 46 -268q0 -140 -42 -304q-74 -280 -256 -516q-222 -288 -470 -288q-214 0 -304 236q-44 116 -44 260zM268 480q0 -82 40 -134q46 -58 128 -58q112 0 202 118q72 94 104 222q24 95 24 188 q0 54 -8 108q-24 144 -120 144q-110 0 -224 -180q-92 -142 -128 -278q-18 -72 -18 -130z" />
<glyph unicode="&#x152;" horiz-adv-x="1728" d="M896 -2l238 1434l666 96l-26 -370q-196 -18 -360 -44q-16 -58 -28 -114l-22 -110l320 68l-18 -276q-228 -40 -358 -70q-8 -40 -14 -80l-14 -78l372 54l-26 -372q-288 -24 -730 -138zM-60 448q0 142 44 308q74 282 254 518q222 290 472 290q212 0 300 -236 q46 -122 46 -268q0 -140 -42 -304q-74 -280 -256 -516q-222 -288 -470 -288q-214 0 -304 236q-44 116 -44 260zM268 480q0 -82 40 -134q46 -58 128 -58q112 0 202 118q72 94 104 222q24 95 24 188q0 54 -8 108q-24 144 -120 144q-110 0 -224 -180q-92 -142 -128 -278 q-18 -72 -18 -130z" />
<glyph unicode="&#x153;" horiz-adv-x="1728" d="M896 -2l238 1434l666 96l-26 -370q-196 -18 -360 -44q-16 -58 -28 -114l-22 -110l320 68l-18 -276q-228 -40 -358 -70q-8 -40 -14 -80l-14 -78l372 54l-26 -372q-288 -24 -730 -138zM-60 448q0 142 44 308q74 282 254 518q222 290 472 290q212 0 300 -236 q46 -122 46 -268q0 -140 -42 -304q-74 -280 -256 -516q-222 -288 -470 -288q-214 0 -304 236q-44 116 -44 260zM268 480q0 -82 40 -134q46 -58 128 -58q112 0 202 118q72 94 104 222q24 95 24 188q0 54 -8 108q-24 144 -120 144q-110 0 -224 -180q-92 -142 -128 -278 q-18 -72 -18 -130z" />
<glyph unicode="&#x2013;" horiz-adv-x="1024" d="M204 512v204h616v-204h-616z" />
<glyph unicode="&#x2014;" horiz-adv-x="2048" d="M204 512v204h1640v-204h-1640z" />
<glyph unicode="&#x2018;" horiz-adv-x="494" d="M84 922l194 664l370 28q-128 -348 -178 -632z" />
<glyph unicode="&#x2019;" horiz-adv-x="494" d="M84 922l194 664l370 28q-128 -348 -178 -632z" />
<glyph unicode="&#x201c;" d="M66 922l194 664l370 28q-128 -348 -178 -632zM578 922l194 664l370 28q-128 -348 -178 -632z" />
<glyph unicode="&#x201d;" d="M66 922l194 664l370 28q-128 -348 -178 -632zM578 922l194 664l370 28q-128 -348 -178 -632z" />
<glyph unicode="&#x2026;" horiz-adv-x="1764" d="M1180 82q0 92 95 169t207 77q60 0 105 -32t45 -90q0 -92 -95 -167t-207 -75q-60 0 -102 28q-48 34 -48 90zM592 82q0 92 95 169t207 77q60 0 105 -32t45 -90q0 -92 -95 -167t-207 -75q-60 0 -102 28q-48 34 -48 90zM4 82q0 92 95 169t207 77q60 0 105 -32t45 -90 q0 -92 -95 -167t-207 -75q-60 0 -102 28q-48 34 -48 90z" />
<glyph unicode="&#x2122;" horiz-adv-x="2016" d="M554 -12q270 684 412 1392l478 78l-68 -734l186 678l460 80q-82 -652 -82 -1176q0 -104 2 -206l-410 -72l72 876l-262 -970l-220 -30l132 1232l-284 -1092zM52 1398l848 98l-12 -372q-140 -8 -266 -20q-132 -554 -178 -1018l-338 -88l184 1064q-54 -8 -108 -18l-106 -20z " />
<glyph unicode="&#xe000;" horiz-adv-x="1525" d="M0 1525h1525v-1525h-1525v1525z" />
<glyph unicode="&#xfb01;" horiz-adv-x="1186" d="M698 -2l246 1414l344 64q-208 -802 -272 -1390zM-96 -2l234 1434l684 96l-24 -370q-200 -18 -372 -44q-14 -56 -24 -110l-24 -108l350 74l-18 -280q-206 -32 -388 -74q-48 -268 -76 -530z" />
<glyph unicode="&#xfb02;" horiz-adv-x="1408" d="M660 -2l246 1414l344 64q-144 -554 -222 -1022l352 54l-30 -372q-272 -24 -690 -138zM-96 -2l234 1434l684 96l-24 -370q-200 -18 -372 -44q-14 -56 -24 -110l-24 -108l350 74l-18 -280q-206 -32 -388 -74q-48 -268 -76 -530z" />
<glyph unicode="&#xfb03;" horiz-adv-x="1926" d="M1438 -2l246 1414l344 64q-208 -802 -272 -1390zM644 -2l234 1434l684 96l-24 -370q-200 -18 -372 -44q-14 -56 -24 -110l-24 -108l350 74l-18 -280q-206 -32 -388 -74q-48 -268 -76 -530zM-96 -2l234 1434l684 96l-24 -370q-200 -18 -372 -44q-14 -56 -24 -110l-24 -108 l350 74l-18 -280q-206 -32 -388 -74q-48 -268 -76 -530z" />
<glyph unicode="&#xfb04;" horiz-adv-x="2148" d="M1400 -2l246 1414l344 64q-144 -554 -222 -1022l352 54l-30 -372q-272 -24 -690 -138zM644 -2l234 1434l684 96l-24 -370q-200 -18 -372 -44q-14 -56 -24 -110l-24 -108l350 74l-18 -280q-206 -32 -388 -74q-48 -268 -76 -530zM-96 -2l234 1434l684 96l-24 -370 q-200 -18 -372 -44q-14 -56 -24 -110l-24 -108l350 74l-18 -280q-206 -32 -388 -74q-48 -268 -76 -530z" />
</font>
</defs>
</svg>
